<svg xmlns="http://www.w3.org/2000/svg" viewBox="0 0 512 512" fill="currentColor">
  <path d="M0,466V46a30.87,30.87,0,0,0,1.16-3.08C6.48,22.78,18.87,9.18,38.62,2.39,41.07,1.55,43.54.8,46,0H466a30.87,30.87,0,0,0,3.08,1.16c20.14,5.32,33.74,17.71,40.53,37.46.84,2.45,1.59,4.92,2.39,7.38V466a30.87,30.87,0,0,0-1.16,3.08c-5.32,20.14-17.71,33.74-37.46,40.53-2.45.84-4.92,1.59-7.38,2.39H46a30.87,30.87,0,0,0-3.08-1.16c-20.14-5.32-33.74-17.71-40.53-37.46C1.55,470.93.8,468.46,0,466ZM326.83,194.9c26.57,18.39,55.09,27.74,86.65,28v-61.4q-79.2-8.91-87.39-87.26H264.51v7.4q0,119.24,0,238.47a64.32,64.32,0,0,1-.77,11.45c-4.74,25.84-28.13,44.5-54,43.25-27-1.31-48.08-22-50.49-49.58C157.06,300.36,175,276,200.55,271c8.4-1.66,17.4-.26,26.2-.26V208.36a100.18,100.18,0,0,0-38.09,1.24c-61.72,13.45-100.39,70.89-89.75,133.12,10.79,63.07,75,105.92,137.4,91.64C290.23,422,326.83,376,326.83,320.67V194.9Z"/>
</svg>
