<svg id="Layer_1" enable-background="new 0 0 36 36" viewBox="0 0 36 36" xmlns="http://www.w3.org/2000/svg"><g><path d="m9.98 6.5c.99 0 1.84-.58 2.24-1.42l11.25 2.81c0 .04-.01.07-.01.11 0 1.38 1.12 2.5 2.5 2.5s2.5-1.12 2.5-2.5-1.12-2.5-2.5-2.5c-.99 0-1.84.58-2.24 1.42l-11.25-2.81c0-.04.01-.07.01-.11 0-1.38-1.12-2.5-2.5-2.5s-2.5 1.12-2.5 2.5 1.12 2.5 2.5 2.5zm15.98 0c.83 0 1.5.67 1.5 1.5s-.67 1.5-1.5 1.5-1.5-.67-1.5-1.5.67-1.5 1.5-1.5zm-15.98-4c.83 0 1.5.67 1.5 1.5s-.67 1.5-1.5 1.5-1.5-.67-1.5-1.5.67-1.5 1.5-1.5z"/><path d="m10 14.5c.99 0 1.84-.58 2.24-1.42l11.25 2.81c0 .04-.01.07-.01.11 0 1.38 1.12 2.5 2.5 2.5s2.5-1.12 2.5-2.5-1.12-2.5-2.5-2.5c-.99 0-1.84.58-2.24 1.42l-11.25-2.81c0-.04.01-.07.01-.11 0-1.38-1.12-2.5-2.5-2.5s-2.5 1.12-2.5 2.5 1.12 2.5 2.5 2.5zm15.98 0c.83 0 1.5.67 1.5 1.5s-.67 1.5-1.5 1.5-1.5-.67-1.5-1.5.67-1.5 1.5-1.5zm-15.98-4c.83 0 1.5.67 1.5 1.5s-.67 1.5-1.5 1.5-1.5-.67-1.5-1.5.67-1.5 1.5-1.5z"/><path d="m10.02 22.5c.99 0 1.84-.58 2.24-1.42l11.25 2.81c0 .04-.01.07-.01.11 0 1.38 1.12 2.5 2.5 2.5s2.5-1.12 2.5-2.5-1.12-2.5-2.5-2.5c-.99 0-1.84.58-2.24 1.42l-11.25-2.81c0-.04.01-.07.01-.11 0-1.38-1.12-2.5-2.5-2.5s-2.5 1.12-2.5 2.5 1.12 2.5 2.5 2.5zm15.98 0c.83 0 1.5.67 1.5 1.5s-.67 1.5-1.5 1.5-1.5-.67-1.5-1.5.67-1.5 1.5-1.5zm-15.98-4c.83 0 1.5.67 1.5 1.5s-.67 1.5-1.5 1.5-1.5-.67-1.5-1.5.67-1.5 1.5-1.5z"/><path d="m26.02 29.5c-.99 0-1.84.58-2.24 1.42l-11.25-2.81c0-.04.01-.07.01-.11 0-1.38-1.12-2.5-2.5-2.5s-2.5 1.12-2.5 2.5 1.12 2.5 2.5 2.5c.99 0 1.84-.58 2.24-1.42l11.25 2.81c0 .04-.01.07-.01.11 0 1.38 1.12 2.5 2.5 2.5s2.5-1.12 2.5-2.5-1.12-2.5-2.5-2.5zm-15.98 0c-.83 0-1.5-.67-1.5-1.5s.67-1.5 1.5-1.5 1.5.67 1.5 1.5-.67 1.5-1.5 1.5zm15.98 4c-.83 0-1.5-.67-1.5-1.5s.67-1.5 1.5-1.5 1.5.67 1.5 1.5-.67 1.5-1.5 1.5z"/></g></svg>