<svg height="512pt" viewBox="-4 0 512 512.00045" width="512pt" xmlns="http://www.w3.org/2000/svg"><path d="m392.558594 128.085938c4.714844 0 8.53125-3.820313 8.53125-8.53125v-34.125h52.761718c4.710938 13.324218 19.332032 20.308593 32.660157 15.597656 13.328125-4.710938 20.3125-19.335938 15.597656-32.664063-4.710937-13.324219-19.332031-20.308593-32.660156-15.597656-7.289063 2.578125-13.023438 8.3125-15.597657 15.597656h-61.292968c-4.710938 0-8.53125 3.820313-8.53125 8.53125v34.128907h-85.75c-.964844-11.8125-3.992188-23.363282-8.949219-34.128907h60.574219c4.710937 0 8.53125-3.816406 8.53125-8.53125v-34.125h44.226562c4.714844 13.328125 19.335938 20.3125 32.664063 15.601563 13.328125-4.714844 20.308593-19.335938 15.597656-32.664063s-19.335937-20.3125-32.660156-15.597656c-7.289063 2.574219-13.023438 8.308594-15.601563 15.597656h-52.757812c-4.710938 0-8.53125 3.820313-8.53125 8.53125v34.125h-59.71875c-.691406.050781-1.371094.1875-2.023438.410157-32.644531-46.007813-96.40625-56.839844-142.417968-24.195313-14.710938 10.441406-26.398438 24.589844-33.867188 41.011719-.28125 0-.527344-.164063-.851562-.164063h-68.253907v-27.164062c13.328125-4.710938 20.3125-19.332031 15.601563-32.660157-4.714844-13.328124-19.335938-20.3125-32.664063-15.601562-13.324219 4.714844-20.3125 19.335938-15.597656 32.664062 2.574219 7.289063 8.308594 13.023438 15.597656 15.597657v35.695312c0 4.714844 3.820313 8.53125 8.53125 8.53125h71.664063c-2.21875 8.355469-3.367188 16.953125-3.410156 25.597657h-68.253907c-4.710937 0-8.53125 3.816406-8.53125 8.53125v52.757812c-13.328125 4.710938-20.308593 19.335938-15.597656 32.660156 4.710937 13.328125 19.335937 20.3125 32.660156 15.601563 13.328125-4.714844 20.3125-19.335938 15.601563-32.664063-2.578125-7.289062-8.3125-13.023437-15.601563-15.597656v-44.226562h61.144531c3.179688 19.046874 11.707032 36.800781 24.589844 51.1875h-43.078125c-4.710937 0-8.53125 3.820312-8.53125 8.53125v85.316406h-18.632812c-4.710938-13.328125-19.332031-20.3125-32.660157-15.601563-13.328124 4.710938-20.3125 19.335938-15.597656 32.664063 4.710938 13.324218 19.332032 20.308594 32.660156 15.597656 7.289063-2.578125 13.023438-8.308594 15.597657-15.597656h27.164062c4.714844 0 8.53125-3.820313 8.53125-8.53125v-85.316406h54.339844c7 4.617187 14.535156 8.359374 22.445313 11.144531v58.976562l-27.660157 6.917969c-3.195312.800781-5.648437 3.371094-6.296875 6.605469l-8.53125 42.65625c-.109375.550781-.167968 1.109375-.167968 1.671875v76.785156c0 2.261719.898437 4.429688 2.5 6.03125l25.261718 25.261719 31.957032 39.949219v22.601562c0 4.710938 3.820312 8.53125 8.53125 8.53125h196.222656c4.710937 0 8.53125-3.820312 8.53125-8.53125v-22.0625l40.160156-40.15625c1.597656-1.601562 2.496094-3.769531 2.5-6.03125v-187.695312c-.015625-18.84375-15.304688-34.113282-34.152344-34.101563-9.785156.007813-19.097656 4.214844-25.570312 11.554687-12.429688-14.136718-33.964844-15.515624-48.101563-3.085937-1.09375.960937-2.125 1.992187-3.085937 3.085937-12.429688-14.136718-33.96875-15.515624-48.101563-3.085937-1.09375.960937-2.125 1.992187-3.085937 3.085937-10.730469-12.207031-28.589844-15.136718-42.660156-6.996093v-1.945313c26.109374-9.308594 47.34375-28.785156 58.867187-53.996094.28125.074219.566406.132813.855469.171876h163.667968c4.710938 13.328124 19.332032 20.308593 32.660157 15.597656 13.328125-4.710938 20.3125-19.332032 15.601562-32.660156-4.714843-13.328126-19.335937-20.3125-32.664062-15.601563-7.289063 2.578125-13.023438 8.3125-15.597657 15.601563h-158.4375c1.460938-5.59375 2.445313-11.304688 2.941407-17.0625zm85.316406-59.722657c4.710938 0 8.53125 3.820313 8.53125 8.53125 0 4.714844-3.820312 8.53125-8.53125 8.53125s-8.53125-3.816406-8.53125-8.53125c0-4.710937 3.820312-8.53125 8.53125-8.53125zm-51.1875-51.1875c4.710938 0 8.53125 3.820313 8.53125 8.53125 0 4.710938-3.820312 8.53125-8.53125 8.53125-4.714844 0-8.53125-3.820312-8.53125-8.53125 0-4.710937 3.816406-8.53125 8.53125-8.53125zm-400.980469 0c4.710938 0 8.53125 3.820313 8.53125 8.53125 0 4.710938-3.820312 8.53125-8.53125 8.53125-4.710937 0-8.53125-3.820312-8.53125-8.53125 0-4.710937 3.820313-8.53125 8.53125-8.53125zm0 196.222657c-4.710937 0-8.53125-3.820313-8.53125-8.53125 0-4.710938 3.820313-8.53125 8.53125-8.53125 4.710938 0 8.53125 3.820312 8.53125 8.53125 0 4.710937-3.820312 8.53125-8.53125 8.53125zm0 85.316406c-4.710937 0-8.53125-3.820313-8.53125-8.53125 0-4.710938 3.820313-8.53125 8.53125-8.53125 4.710938 0 8.53125 3.820312 8.53125 8.53125 0 4.710937-3.820312 8.53125-8.53125 8.53125zm452.167969-153.566406c4.710938 0 8.53125 3.820312 8.53125 8.53125 0 4.710937-3.820312 8.53125-8.53125 8.53125s-8.53125-3.820313-8.53125-8.53125c0-4.710938 3.820312-8.53125 8.53125-8.53125zm-281.539062-42.65625c-18.847657 0-34.125 15.277343-34.125 34.125v8.453124c-14.136719-18.847656-10.316407-45.585937 8.53125-59.71875 18.847656-14.136718 45.585937-10.316406 59.71875 8.53125 11.378906 15.167969 11.378906 36.019532 0 51.1875v-8.453124c0-18.847657-15.277344-34.125-34.125-34.125zm51.1875 127.96875c9.425781 0 17.066406 7.640624 17.066406 17.0625 0 4.714843 3.816406 8.53125 8.53125 8.53125 4.710937 0 8.53125-3.816407 8.53125-8.53125 0-9.421876 7.636718-17.0625 17.0625-17.0625 9.421875 0 17.0625 7.640624 17.0625 17.0625 0 4.714843 3.820312 8.53125 8.53125 8.53125 4.710937 0 8.53125-3.816407 8.53125-8.53125 0-9.421876 7.640625-17.0625 17.0625-17.0625s17.0625 7.640624 17.0625 17.0625c0 4.714843 3.820312 8.53125 8.53125 8.53125 4.710937 0 8.53125-3.816407 8.53125-8.53125 0-9.421876 7.640625-17.0625 17.0625-17.0625 9.425781 0 17.0625 7.640624 17.0625 17.0625v184.160156l-40.15625 40.160156c-1.601563 1.597656-2.5 3.769531-2.5 6.03125v17.0625h-179.160156v-17.0625c0-1.9375-.65625-3.820312-1.867188-5.332031l-34.125-42.660157c-.195312-.238281-.410156-.476562-.632812-.699218l-23.09375-23.09375v-72.398438l7.300781-36.539062 18.292969-4.582032v48.800782c0 4.710937 3.820312 8.53125 8.53125 8.53125 4.710937 0 8.53125-3.820313 8.53125-8.53125v-204.753906c0-9.425782 7.640624-17.0625 17.0625-17.0625 9.425781 0 17.0625 7.636718 17.0625 17.0625v110.90625c0 4.714843 3.820312 8.53125 8.53125 8.53125 4.714843 0 8.53125-3.816407 8.53125-8.53125 0-9.421876 7.640624-17.0625 17.0625-17.0625zm-17.0625-32.757813v-29.265625c27.070312-18.847656 33.730468-56.066406 14.886718-83.132812-18.847656-27.070313-56.070312-33.730469-83.136718-14.886719-27.066407 18.847656-33.730469 56.070312-14.882813 83.136719 4.039063 5.804687 9.078125 10.84375 14.882813 14.882812v29.238281c-43.183594-18.847656-62.914063-69.132812-44.066407-112.316406 18.847657-43.1875 69.132813-62.914063 112.316407-44.066406 43.1875 18.847656 62.914062 69.132812 44.066406 112.316406-8.605469 19.71875-24.34375 35.460937-44.066406 44.066406zm0 0"/></svg>