<svg id="&#x421;&#x43B;&#x43E;&#x439;_1" enable-background="new 0 0 16 16" viewBox="0 0 16 16" xmlns="http://www.w3.org/2000/svg"><path d="m15.5 3.625h-15c-.2070312 0-.375.1679688-.375.375v6c0 .2070313.1679688.375.375.375h9.1629028c.1813354 1.1308594 1.1559448 2 2.3370972 2s2.1557617-.8691406 2.3370972-2h1.1629028c.2070313 0 .375-.1679688.375-.375v-6c0-.2070312-.1679687-.375-.375-.375zm-2.375 2h-1.25v-1.25h1.25zm.75-1.25h1.25v1.25h-1.25zm-2.75 1.25h-1.25v-1.25h1.25zm-3.75 2v-1.25h1.25v1.25zm-2 0v-1.25h1.25v1.25zm-2 0v-1.25h1.25v1.25zm-2.5 0v-1.25h1.75v1.25zm8.25-2h-1.25v-1.25h1.25zm-2 0h-1.25v-1.25h1.25zm-2 0h-1.25v-1.25h1.25zm-2 0h-2.25v-1.25h2.25zm-2.25 2.75h2.25v1.25h-2.25zm3 0h5.75v1.25h-5.75zm5.7879028-.75h-.2879028v-1.25h.9021606c-.3196411.3388062-.5372924.7698975-.6142578 1.25zm5.4620972-1.25v1.25h-.7879028c-.0769653-.4801025-.2946167-.9111938-.6142578-1.25zm-.75 2h.75v1.25h-.75zm-2.375 3.25c-.8964844 0-1.625-.7290039-1.625-1.625v-2c0-.7664185.534729-1.4067993 1.25-1.5770264v1.5770264c0 .2070313.1679688.375.375.375s.375-.1679687.375-.375v-1.5770264c.715271.1702271 1.25.8106079 1.25 1.5770264v2c0 .8959961-.7285156 1.625-1.625 1.625z" fill="rgb(0,0,0)"/></svg>