<svg xmlns="http://www.w3.org/2000/svg" viewBox="0 0 512 512" fill="currentColor">
  <path d="M0,450V62c.31-.34.82-.64.89-1C5.17,37.16,18.61,19.86,39.46,8.43c7-3.82,15-5.68,22.54-8.43H450c.34.31.64.82,1,.89,23.82,4.28,41.12,17.72,52.55,38.57,3.82,7,5.68,15,8.43,22.54V450c-.31.34-.82.64-.89,1-4.28,23.82-17.72,41.12-38.57,52.55-7,3.82-15,5.68-22.54,8.43H316V330.74h75.58c5-30.12,9.88-59.67,14.89-89.91H316.24V180h90.4V90.15c-1.17-.06-2-.14-2.81-.14-28,0-56-.26-84,.14a104.58,104.58,0,0,0-26.29,3.28c-25.85,7.15-45.15,22.85-57.63,46.79-7.3,14-9.4,29.21-9.83,44.63-.46,16.81-.1,33.65-.1,50.48v5.85H166.25v89.89H226V512H62c-.34-.31-.64-.82-1-.89-23.82-4.28-41.12-17.72-52.55-38.57C4.61,465.58,2.75,457.55,0,450Z"/>
</svg>
