<svg xmlns="http://www.w3.org/2000/svg" viewBox="0 0 170.59 170.59" fill="currentColor">
  <g>
    <path d="M85,170.56c-16,0-32,.08-48,0-16.75-.1-30.22-9.89-35.29-25.83a37.81,37.81,0,0,1-1.65-11Q-.07,85.31.07,37C.15,16.13,16,.21,36.8.11q48.48-.22,97,0c20.82.1,36.65,16,36.73,36.85q.18,48.36,0,96.72c-.09,20.95-16,36.65-37,36.88H85Zm38.05-85.09c.23-20.43-16.76-37.73-37.26-37.94A37.88,37.88,0,0,0,47.51,85.16c-.29,20.48,16.83,37.82,37.49,38A38,38,0,0,0,123.08,85.47Zm10-61.21a13.44,13.44,0,1,0,13.34,13.53A13.31,13.31,0,0,0,133,24.26Z"/>
    <path d="M103.9,85.73a18.62,18.62,0,1,1-18.33-19A18.44,18.44,0,0,1,103.9,85.73Z"/>
  </g>
</svg>
