<svg xmlns="http://www.w3.org/2000/svg" width="96" height="96" viewBox="0 0 96 96" fill="none">
  <path fill="#111" d="M26 46c2-8 6-18 10-20 6-4 18-4 24 0 4 2 8 12 10 20l2 6v20c0 4-3 7-7 7h-2c-4 0-7-3-7-7v-2H40v2c0 4-3 7-7 7h-2c-4 0-7-3-7-7V52l2-6Z"/>
  <path fill="#F6C000" d="M32 44c2-7 4-13 6-14 5-3 15-3 20 0 2 1 4 7 6 14H32Z"/>
  <path fill="#fff" d="M36 52h24v10H36V52Z"/>
  <circle cx="30" cy="68" r="6" fill="#222"/>
  <circle cx="66" cy="68" r="6" fill="#222"/>
  <path fill="#F6C000" d="M42 22h12v6H42v-6Z"/>
</svg>
