<?xml version="1.0" encoding="UTF-8"?>
<svg id="Layer_2" data-name="Layer 2" xmlns="http://www.w3.org/2000/svg" xmlns:xlink="http://www.w3.org/1999/xlink" viewBox="0 0 115.47 115.47">
  <defs>
    <style>
      .cls-1 {
        filter: url(#drop-shadow-2);
      }

      .cls-1, .cls-2 {
        fill: #ff0374;
        opacity: .75;
      }

      .cls-2 {
        filter: url(#drop-shadow-3);
      }

      .cls-3 {
        fill: url(#linear-gradient);
        opacity: .5;
      }

      .cls-4 {
        fill: #ffdd15;
        filter: url(#drop-shadow-1);
      }
    </style>
    <linearGradient id="linear-gradient" x1="0" y1="57.74" x2="115.47" y2="57.74" gradientUnits="userSpaceOnUse">
      <stop offset="0" stop-color="#00ffe9"/>
      <stop offset="0" stop-color="#00fbe7"/>
      <stop offset=".07" stop-color="#08c0c6"/>
      <stop offset=".14" stop-color="#0e8fab"/>
      <stop offset=".2" stop-color="#136995"/>
      <stop offset=".25" stop-color="#174e86"/>
      <stop offset=".3" stop-color="#193d7d"/>
      <stop offset=".34" stop-color="#1a387a"/>
      <stop offset=".38" stop-color="#243980"/>
      <stop offset=".44" stop-color="#403c90"/>
      <stop offset=".52" stop-color="#6d42ab"/>
      <stop offset=".62" stop-color="#ac4ad0"/>
      <stop offset=".73" stop-color="#fa55ff"/>
      <stop offset=".79" stop-color="#fa6ce8"/>
      <stop offset=".9" stop-color="#fba8b0"/>
      <stop offset="1" stop-color="#fce07c"/>
    </linearGradient>
    <filter id="drop-shadow-1" filterUnits="userSpaceOnUse">
      <feOffset dx="2.83" dy="2.83"/>
      <feGaussianBlur result="blur" stdDeviation="2.83"/>
      <feFlood flood-color="#888" flood-opacity=".75"/>
      <feComposite in2="blur" operator="in"/>
      <feComposite in="SourceGraphic"/>
    </filter>
    <filter id="drop-shadow-2" filterUnits="userSpaceOnUse">
      <feOffset dx="2.83" dy="2.83"/>
      <feGaussianBlur result="blur-2" stdDeviation="2.83"/>
      <feFlood flood-color="#888" flood-opacity=".75"/>
      <feComposite in2="blur-2" operator="in"/>
      <feComposite in="SourceGraphic"/>
    </filter>
    <filter id="drop-shadow-3" filterUnits="userSpaceOnUse">
      <feOffset dx="5.67" dy="5.67"/>
      <feGaussianBlur result="blur-3" stdDeviation="5"/>
      <feFlood flood-color="#888" flood-opacity=".75"/>
      <feComposite in2="blur-3" operator="in"/>
      <feComposite in="SourceGraphic"/>
    </filter>
  </defs>
  <g id="Layer_1-2" data-name="Layer 1">
    <g>
      <rect class="cls-3" width="115.47" height="115.47" rx="6.19" ry="6.19"/>
      <g>
        <path class="cls-4" d="m54.78,33.96c.34-.04.84-.1,1.45-.12,6.43-.29,13.91,2.71,18.63,8.73,3.03,3.86,4.89,9.01,4.82,15.45-.03,2.55-.08,9.37-5.15,15.31-3.79,4.44-8.45,6.12-10.58,6.74,3.33,3.05,6.66,6.09,9.99,9.14,2.41-1.41,5.91-3.84,9.15-7.75,7.71-9.33,7.97-19.95,8.01-23.31.04-3.92,0-14.21-7.49-23.5-6.07-7.52-13.74-10.31-16.93-11.27"/>
        <path class="cls-1" d="m38.97,48.37c9.3-8.59,18.55-16.92,27.72-25-2.15-.58-4.88-1.12-8.08-1.29-3.44-.18-6.41.12-8.71.52h0c-.07.06-.15.12-.22.19-8.06,6.76-16.11,13.53-24.17,20.29h0c-.32.27-.63.54-.95.8,0,.6-.09,7.85-.09,8.46,0,.78-.1,8.89-.11,9.69,4.79-4.55,9.66-9.1,14.61-13.67Z"/>
        <path class="cls-2" d="m35.97,54.46l-11.42-10.58s0,0,0,.02l-.2,18.14,2.48,2.3h0c10.5,9.7,21,19.4,31.5,29.11,2.1-.07,4.74-.35,7.7-1.12,3.28-.85,5.94-2.05,7.91-3.12-12.66-11.58-25.32-23.16-37.98-34.74Z"/>
      </g>
    </g>
  </g>
</svg>